<?xml version="1.0" encoding="utf-8"?>
<!-- Generator: Adobe Illustrator 25.3.1, SVG Export Plug-In . SVG Version: 6.00 Build 0)  -->
<svg version="1.1" id="Capa_1" xmlns="http://www.w3.org/2000/svg" xmlns:xlink="http://www.w3.org/1999/xlink" x="0px" y="0px"
	 viewBox="0 0 800 800" style="enable-background:new 0 0 800 800;" xml:space="preserve">
<g>
	<g>
		<path d="M637.8,13.4c0.1-4.9-2.6-9.5-6.8-11.8c-4.3-2.4-9.6-2.1-13.7,0.6c-25.9,17.4-73,51.1-123.7,96l8.4,106.2l-49.7-67.5
			c-47.5,47-93.9,102.7-125,163.3l6,75.7l-24.8-33.6c-24.8,66.2-28.8,137,4.7,207.6l-24.4,44.5l-0.4,0.5h-38.7
			c-13.7,0-24.4,11.6-24.4,25.3v36.1h6.3l-58,101c-6.6,0-11.4,5.2-11.4,11.8v20.2c0,6.3,4.3,10.8,10.6,10.8h231.6
			c6.3,0,12.1-4.5,12.1-10.8v-20.7c0-6.3-5.5-11.3-11.7-11.3l-61.7-101h8.5v-36.1c0-13.7-10.5-25.3-24.1-25.3h-0.4v-0.2l15.5-28.9
			c39.4-5.1,73.4-18.4,103-37.7l-48.7-15.6l96.1-24c33.2-34.7,58.8-78,78.6-124.5l-60.3-3.8l77.5-41.7
			C629.6,197.3,636.7,66.6,637.8,13.4z M268.7,676.8l-38.9,73.1c-2.5,4.8-7.4,7.5-12.5,7.5c-2.2,0-4.5-0.5-6.6-1.6
			c-6.9-3.7-9.5-12.2-5.8-19.2l38.9-73.1c3.7-6.8,12.2-9.5,19.1-5.7C269.8,661.4,272.4,669.9,268.7,676.8z M261.1,642.2
			c-8,0-14.5-6.5-14.5-14.5c0-8,6.5-14.5,14.5-14.5c8,0,14.5,6.5,14.5,14.5C275.6,635.7,269.1,642.2,261.1,642.2z"/>
	</g>
</g>
</svg>
